<?xml version="1.0" standalone="no"?>
<!DOCTYPE svg PUBLIC "-//W3C//DTD SVG 20010904//EN"
 "http://www.w3.org/TR/2001/REC-SVG-20010904/DTD/svg10.dtd">
<svg version="1.0" xmlns="http://www.w3.org/2000/svg"
 width="1280.000000pt" height="1280.000000pt" viewBox="0 0 1280.000000 1280.000000"
 preserveAspectRatio="xMidYMid meet">
<metadata>
Created by potrace 1.14, written by Peter Selinger 2001-2017
</metadata>
<g transform="translate(0.000000,1280.000000) scale(0.100000,-0.100000)"
fill="#000000" stroke="none">
<path d="M6135 12124 c-744 -41 -1492 -236 -2150 -559 -570 -280 -1036 -610
-1483 -1049 -1080 -1060 -1682 -2495 -1682 -4009 0 -288 10 -457 41 -707 120
-969 492 -1883 1088 -2677 452 -602 1052 -1131 1701 -1500 692 -394 1393 -620
2190 -707 944 -103 1946 45 2805 416 896 386 1670 986 2259 1752 244 317 487
719 653 1081 493 1076 632 2292 397 3465 -317 1574 -1319 2959 -2724 3762
-692 395 -1412 624 -2245 713 -145 16 -689 28 -850 19z m-2368 -3119 c101
-231 187 -423 191 -427 13 -12 739 -53 1437 -80 435 -17 2164 -17 2655 0 512
18 948 37 1503 68 263 15 480 24 483 21 3 -3 -329 -821 -739 -1819 l-744
-1813 -514 -6 c-283 -3 -1026 -10 -1651 -14 -626 -4 -1135 -11 -1133 -16 4 -6
-270 -244 -667 -579 -17 -14 -17 -17 0 -62 l17 -48 873 0 c822 0 873 1 879 18
3 9 23 55 45 101 104 220 351 363 598 348 269 -17 493 -190 573 -442 32 -101
31 -262 -1 -360 -35 -105 -77 -172 -162 -256 -123 -123 -269 -182 -445 -182
-150 0 -285 48 -404 144 -62 51 -140 150 -166 213 l-15 36 -900 0 -899 0 -33
-62 c-20 -39 -63 -94 -113 -143 -131 -132 -264 -187 -445 -187 -254 0 -470
136 -575 365 -44 96 -59 177 -53 290 14 259 178 468 438 558 85 29 275 33 359
6 29 -9 59 -14 65 -10 6 4 161 135 344 291 238 203 332 289 329 301 -2 9 -96
248 -207 531 -253 645 -338 861 -643 1640 -148 378 -331 820 -462 1120 -120
272 -219 497 -222 500 -2 2 -118 -11 -258 -29 -272 -35 -292 -35 -350 11 -34
27 -65 89 -65 131 0 80 66 159 144 173 122 22 667 92 705 90 l43 -1 185 -420z"/>
<path d="M4182 8153 c7 -22 1073 -2743 1097 -2798 l18 -40 759 6 c417 4 1016
8 1329 10 314 2 646 6 739 9 l168 5 579 1410 c318 775 577 1411 575 1413 -2 1
-79 -2 -172 -7 -1200 -73 -2968 -90 -4179 -41 -351 15 -834 39 -879 45 -33 5
-38 3 -34 -12z"/>
<path d="M3885 4286 c-91 -43 -136 -114 -136 -214 0 -186 224 -295 383 -186
62 44 92 97 96 173 3 44 -1 79 -10 101 -54 128 -207 186 -333 126z"/>
<path d="M6881 4296 c-91 -33 -155 -124 -155 -221 1 -107 65 -190 173 -221
200 -59 374 136 287 322 -50 108 -188 163 -305 120z"/>
</g>
</svg>
